# xmcd
#
# Track frame offsets:
#	151
#	13908
#	31166
#	46915
#	60171
#	73555
#	88804
#	101664
#	114233
#	124951
#	142014
#
# Disc length: 2126 seconds
#
# Revision: 1
# Processed by: cddbd v1.5PL3 Copyright (c) Steve Scherf et al.
# Submitted via: audiograbber 1.83.01
#
DISCID=91084c0b
DTITLE=Aunt Mary - Bluesprints
DYEAR=1992
DGENRE=Blues
TTITLE0=Tobacco road
TTITLE1=Drown in my own tears
TTITLE2=She caught the Cathy
TTITLE3=Why I sing the blues
TTITLE4=I've got a woman
TTITLE5=Same old blues
TTITLE6=It's over
TTITLE7=Corrina
TTITLE8=I chose to sing the blues
TTITLE9=Reconsider baby
TTITLE10=Jimi, Janis abd Brian (bonus track)
EXTD=
EXTT0=
EXTT1=
EXTT2=
EXTT3=
EXTT4=
EXTT5=
EXTT6=
EXTT7=
EXTT8=
EXTT9=
EXTT10=
PLAYORDER=
